mtllib EffCommonRayGunBullet.mtl

v -0.400000 0.850000 -1.550000
v -0.400000 -0.850000 -0.050000
v -0.400000 0.850000 0.450000
v -0.400000 -0.850000 -2.050000
v -0.400000 0.850000 -4.050000
v -0.400000 -0.850000 -4.550000
v -0.400000 0.850000 -6.950001
v -0.400000 -0.850000 -7.450000
v 0.400000 -0.850000 -2.050000
v 0.400000 0.850000 0.450000
v 0.400000 -0.850000 -0.050000
v 0.400000 0.850000 -1.550000
v 0.400000 -0.850000 -4.550000
v 0.400000 0.850000 -4.050000
v 0.400000 -0.850000 -7.450000
v 0.400000 0.850000 -6.950001
v -0.400000 -0.850000 -0.050000
v 0.400000 -0.850000 -2.050000
v 0.400000 -0.850000 -0.050000
v -0.400000 -0.850000 -2.050000
v 0.400000 -0.850000 -4.550000
v -0.400000 -0.850000 -4.550000
v 0.400000 -0.850000 -7.450000
v -0.400000 -0.850000 -7.450000
v -0.400000 0.850000 -6.950001
v 0.400000 0.850000 -4.050000
v 0.400000 0.850000 -6.950001
v -0.400000 0.850000 -4.050000
v 0.400000 0.850000 -1.550000
v -0.400000 0.850000 -1.550000
v 0.400000 0.850000 0.450000
v -0.400000 0.850000 0.450000
v 0.400000 -0.850000 -0.050000
v -0.400000 0.850000 0.450000
v -0.400000 -0.850000 -0.050000
v 0.400000 0.850000 0.450000

vt 0.000000 1.000000
vt 0.000000 1.000000
vt 0.000000 1.000000
vt 0.000000 1.000000
vt 0.000000 1.000000
vt 0.000000 1.000000
vt 0.000000 1.000000
vt 0.000000 1.000000
vt 0.000000 1.000000
vt 0.000000 1.000000
vt 0.000000 1.000000
vt 0.000000 1.000000
vt 0.000000 1.000000
vt 0.000000 1.000000
vt 0.000000 1.000000
vt 0.000000 1.000000
vt 0.000000 1.000000
vt 0.000000 1.000000
vt 0.000000 1.000000
vt 0.000000 1.000000
vt 0.000000 1.000000
vt 0.000000 1.000000
vt 0.000000 1.000000
vt 0.000000 1.000000
vt 0.000000 1.000000
vt 0.000000 1.000000
vt 0.000000 1.000000
vt 0.000000 1.000000
vt 0.000000 1.000000
vt 0.000000 1.000000
vt 0.000000 1.000000
vt 0.000000 1.000000
vt 0.000000 1.000000
vt 0.000000 1.000000
vt 0.000000 1.000000
vt 0.000000 1.000000

vn -1.000000 0.000000 0.000000
vn -1.000000 0.000000 0.000000
vn -1.000000 0.000000 0.000000
vn -1.000000 0.000000 0.000000
vn -1.000000 0.000000 0.000000
vn -1.000000 0.000000 0.000000
vn -1.000000 0.000000 0.000000
vn -1.000000 0.000000 0.000000
vn 1.000000 0.000000 0.000000
vn 1.000000 0.000000 0.000000
vn 1.000000 0.000000 0.000000
vn 1.000000 0.000000 0.000000
vn 1.000000 0.000000 0.000000
vn 1.000000 0.000000 0.000000
vn 1.000000 0.000000 0.000000
vn 1.000000 0.000000 0.000000
vn 0.000000 -1.000000 0.000000
vn 0.000000 -1.000000 0.000000
vn 0.000000 -1.000000 0.000000
vn 0.000000 -1.000000 0.000000
vn 0.000000 -1.000000 0.000000
vn 0.000000 -1.000000 0.000000
vn 0.000000 -1.000000 0.000000
vn 0.000000 -1.000000 0.000000
vn 0.000000 1.000000 0.000000
vn 0.000000 1.000000 0.000000
vn 0.000000 1.000000 0.000000
vn 0.000000 1.000000 0.000000
vn 0.000000 1.000000 0.000000
vn 0.000000 1.000000 0.000000
vn 0.000000 1.000000 0.000000
vn 0.000000 1.000000 0.000000
vn 0.000000 -0.282166 0.959366
vn 0.000000 -0.282166 0.959366
vn 0.000000 -0.282166 0.959366
vn 0.000000 -0.282166 0.959366

g polygon0
s 1
usemtl mat2
f 1/1/1 2/2/2 3/3/3
f 1/1/1 4/4/4 2/2/2
f 5/5/5 4/4/4 1/1/1
f 5/5/5 6/6/6 4/4/4
f 7/7/7 6/6/6 5/5/5
f 7/7/7 8/8/8 6/6/6
f 9/9/9 10/10/10 11/11/11
f 9/9/9 12/12/12 10/10/10
f 13/13/13 12/12/12 9/9/9
f 13/13/13 14/14/14 12/12/12
f 15/15/15 14/14/14 13/13/13
f 15/15/15 16/16/16 14/14/14
f 17/17/17 18/18/18 19/19/19
f 17/17/17 20/20/20 18/18/18
f 20/20/20 21/21/21 18/18/18
f 20/20/20 22/22/22 21/21/21
f 23/23/23 22/22/22 24/24/24
f 23/23/23 21/21/21 22/22/22
f 25/25/25 26/26/26 27/27/27
f 25/25/25 28/28/28 26/26/26
f 28/28/28 29/29/29 26/26/26
f 28/28/28 30/30/30 29/29/29
f 31/31/31 30/30/30 32/32/32
f 31/31/31 29/29/29 30/30/30
f 33/33/33 34/34/34 35/35/35
f 33/33/33 36/36/36 34/34/34

v -0.000000 1.000000 0.574999
v -0.000000 2.617049 0.976072
v -0.000000 1.603439 2.085083
v 0.000000 3.000000 -1.025001
v -0.000000 1.000000 -1.525001
v 0.000000 3.000000 -3.450002
v 0.000000 1.000000 -3.950001
v 0.000000 3.000000 -6.525002
v 0.000000 1.000000 -7.025001
v 0.000000 2.439642 -8.244822
v 0.000000 1.000000 -11.930931
v -0.000000 -1.000000 0.024999
v -0.000000 -0.550534 2.148603
v -0.000000 -1.000000 -2.075000
v 0.000000 -1.000000 -4.500000
v 0.000000 -1.000000 -7.575000
v 0.000000 -1.000000 -12.480931
v -0.000000 0.550534 2.451397
v -0.000000 -1.931334 1.055623
v -0.000000 -2.617049 -0.376071
v -0.000000 -3.000000 -2.574999
v -0.000000 -3.000000 -4.999999
v 0.000000 -3.000000 -8.074998
v 0.000000 -2.516054 -9.743877

vt 0.000000 1.000000
vt 0.000000 1.000000
vt 0.000000 1.000000
vt 0.000000 1.000000
vt 0.000000 1.000000
vt 0.000000 1.000000
vt 0.000000 1.000000
vt 0.000000 1.000000
vt 0.000000 1.000000
vt 0.000000 1.000000
vt 0.000000 1.000000
vt 0.000000 1.000000
vt 0.000000 1.000000
vt 0.000000 1.000000
vt 0.000000 1.000000
vt 0.000000 1.000000
vt 0.000000 1.000000
vt 0.000000 1.000000
vt 0.000000 1.000000
vt 0.000000 1.000000
vt 0.000000 1.000000
vt 0.000000 1.000000
vt 0.000000 1.000000
vt 0.000000 1.000000

vn 1.000000 -0.000000 0.000000
vn 1.000000 -0.000000 0.000000
vn 1.000000 -0.000000 0.000000
vn 1.000000 -0.000000 0.000000
vn 1.000000 -0.000000 0.000000
vn 1.000000 -0.000000 0.000000
vn 1.000000 -0.000000 0.000000
vn 1.000000 -0.000000 0.000000
vn 1.000000 -0.000000 0.000000
vn 1.000000 -0.000000 0.000000
vn 1.000000 -0.000000 0.000000
vn 1.000000 -0.000000 0.000000
vn 1.000000 -0.000000 0.000000
vn 1.000000 -0.000000 0.000000
vn 1.000000 -0.000000 0.000000
vn 1.000000 -0.000000 0.000000
vn 1.000000 -0.000000 0.000000
vn 1.000000 -0.000000 0.000000
vn 1.000000 -0.000000 0.000000
vn 1.000000 -0.000000 0.000000
vn 1.000000 -0.000000 0.000000
vn 1.000000 -0.000000 0.000000
vn 1.000000 -0.000000 0.000000
vn 1.000000 -0.000000 0.000000

g polygon1
s 1
usemtl mat1
f 37/37/37 38/38/38 39/39/39
f 37/37/37 40/40/40 38/38/38
f 41/41/41 40/40/40 37/37/37
f 41/41/41 42/42/42 40/40/40
f 43/43/43 42/42/42 41/41/41
f 43/43/43 44/44/44 42/42/42
f 45/45/45 44/44/44 43/43/43
f 45/45/45 46/46/46 44/44/44
f 47/47/47 46/46/46 45/45/45
f 48/48/48 37/37/37 49/49/49
f 48/48/48 41/41/41 37/37/37
f 50/50/50 41/41/41 48/48/48
f 50/50/50 43/43/43 41/41/41
f 51/51/51 43/43/43 50/50/50
f 51/51/51 45/45/45 43/43/43
f 52/52/52 45/45/45 51/51/51
f 52/52/52 47/47/47 45/45/45
f 53/53/53 47/47/47 52/52/52
f 54/54/54 37/37/37 39/39/39
f 54/54/54 49/49/49 37/37/37
f 55/55/55 48/48/48 49/49/49
f 55/55/55 56/56/56 48/48/48
f 56/56/56 50/50/50 48/48/48
f 56/56/56 57/57/57 50/50/50
f 57/57/57 51/51/51 50/50/50
f 57/57/57 58/58/58 51/51/51
f 58/58/58 52/52/52 51/51/51
f 58/58/58 59/59/59 52/52/52
f 52/52/52 60/60/60 53/53/53
f 52/52/52 59/59/59 60/60/60

